<svg width="179" height="40" viewBox="0 0 179 40" fill="none" xmlns="http://www.w3.org/2000/svg">
<path d="M63.16 32.2537C61.408 32.2537 59.824 31.9537 58.408 31.3537C57.016 30.7537 55.912 29.8897 55.096 28.7617C54.28 27.6337 53.86 26.3017 53.836 24.7657H59.236C59.308 25.7977 59.668 26.6137 60.316 27.2137C60.988 27.8137 61.9 28.1137 63.052 28.1137C64.228 28.1137 65.152 27.8377 65.824 27.2857C66.496 26.7097 66.832 25.9657 66.832 25.0537C66.832 24.3097 66.604 23.6977 66.148 23.2177C65.692 22.7377 65.116 22.3657 64.42 22.1017C63.748 21.8137 62.812 21.5017 61.612 21.1657C59.98 20.6857 58.648 20.2177 57.616 19.7617C56.608 19.2817 55.732 18.5737 54.988 17.6377C54.268 16.6777 53.908 15.4057 53.908 13.8217C53.908 12.3337 54.28 11.0377 55.024 9.93367C55.768 8.82967 56.812 7.98967 58.156 7.41367C59.5 6.81367 61.036 6.51367 62.764 6.51367C65.356 6.51367 67.456 7.14967 69.064 8.42167C70.696 9.66967 71.596 11.4217 71.764 13.6777H66.22C66.172 12.8137 65.8 12.1057 65.104 11.5537C64.432 10.9777 63.532 10.6897 62.404 10.6897C61.42 10.6897 60.628 10.9417 60.028 11.4457C59.452 11.9497 59.164 12.6817 59.164 13.6417C59.164 14.3137 59.38 14.8777 59.812 15.3337C60.268 15.7657 60.82 16.1257 61.468 16.4137C62.14 16.6777 63.076 16.9897 64.276 17.3497C65.908 17.8297 67.24 18.3097 68.272 18.7897C69.304 19.2697 70.192 19.9897 70.936 20.9497C71.68 21.9097 72.052 23.1697 72.052 24.7297C72.052 26.0737 71.704 27.3217 71.008 28.4737C70.312 29.6257 69.292 30.5497 67.948 31.2457C66.604 31.9177 65.008 32.2537 63.16 32.2537Z" fill="#18063C"/>
<path d="M74.7655 21.9577C74.7655 19.9417 75.1615 18.1537 75.9535 16.5937C76.7695 15.0337 77.8615 13.8337 79.2295 12.9937C80.6215 12.1537 82.1695 11.7337 83.8735 11.7337C85.3615 11.7337 86.6575 12.0337 87.7615 12.6337C88.8895 13.2337 89.7895 13.9897 90.4615 14.9017V12.0577H95.5375V32.0017H90.4615V29.0857C89.8135 30.0217 88.9135 30.8017 87.7615 31.4257C86.6335 32.0257 85.3255 32.3257 83.8375 32.3257C82.1575 32.3257 80.6215 31.8937 79.2295 31.0297C77.8615 30.1657 76.7695 28.9537 75.9535 27.3937C75.1615 25.8097 74.7655 23.9977 74.7655 21.9577ZM90.4615 22.0297C90.4615 20.8057 90.2215 19.7617 89.7415 18.8977C89.2615 18.0097 88.6135 17.3377 87.7975 16.8817C86.9815 16.4017 86.1055 16.1617 85.1695 16.1617C84.2335 16.1617 83.3695 16.3897 82.5775 16.8457C81.7855 17.3017 81.1375 17.9737 80.6335 18.8617C80.1535 19.7257 79.9135 20.7577 79.9135 21.9577C79.9135 23.1577 80.1535 24.2137 80.6335 25.1257C81.1375 26.0137 81.7855 26.6977 82.5775 27.1777C83.3935 27.6577 84.2575 27.8977 85.1695 27.8977C86.1055 27.8977 86.9815 27.6697 87.7975 27.2137C88.6135 26.7337 89.2615 26.0617 89.7415 25.1977C90.2215 24.3097 90.4615 23.2537 90.4615 22.0297Z" fill="#18063C"/>
<path d="M98.8039 21.9577C98.8039 19.9417 99.1999 18.1537 99.9919 16.5937C100.808 15.0337 101.9 13.8337 103.268 12.9937C104.66 12.1537 106.208 11.7337 107.912 11.7337C109.4 11.7337 110.696 12.0337 111.8 12.6337C112.928 13.2337 113.828 13.9897 114.5 14.9017V12.0577H119.576V32.0017H114.5V29.0857C113.852 30.0217 112.952 30.8017 111.8 31.4257C110.672 32.0257 109.364 32.3257 107.876 32.3257C106.196 32.3257 104.66 31.8937 103.268 31.0297C101.9 30.1657 100.808 28.9537 99.9919 27.3937C99.1999 25.8097 98.8039 23.9977 98.8039 21.9577ZM114.5 22.0297C114.5 20.8057 114.26 19.7617 113.78 18.8977C113.3 18.0097 112.652 17.3377 111.836 16.8817C111.02 16.4017 110.144 16.1617 109.208 16.1617C108.272 16.1617 107.408 16.3897 106.616 16.8457C105.824 17.3017 105.176 17.9737 104.672 18.8617C104.192 19.7257 103.952 20.7577 103.952 21.9577C103.952 23.1577 104.192 24.2137 104.672 25.1257C105.176 26.0137 105.824 26.6977 106.616 27.1777C107.432 27.6577 108.296 27.8977 109.208 27.8977C110.144 27.8977 111.02 27.6697 111.836 27.2137C112.652 26.7337 113.3 26.0617 113.78 25.1977C114.26 24.3097 114.5 23.2537 114.5 22.0297Z" fill="#18063C"/>
<path d="M132.814 32.2537C131.062 32.2537 129.478 31.9537 128.062 31.3537C126.67 30.7537 125.566 29.8897 124.75 28.7617C123.934 27.6337 123.514 26.3017 123.49 24.7657H128.89C128.962 25.7977 129.322 26.6137 129.97 27.2137C130.642 27.8137 131.554 28.1137 132.706 28.1137C133.882 28.1137 134.806 27.8377 135.478 27.2857C136.15 26.7097 136.486 25.9657 136.486 25.0537C136.486 24.3097 136.258 23.6977 135.802 23.2177C135.346 22.7377 134.77 22.3657 134.074 22.1017C133.402 21.8137 132.466 21.5017 131.266 21.1657C129.634 20.6857 128.302 20.2177 127.27 19.7617C126.262 19.2817 125.386 18.5737 124.642 17.6377C123.922 16.6777 123.562 15.4057 123.562 13.8217C123.562 12.3337 123.934 11.0377 124.678 9.93367C125.422 8.82967 126.466 7.98967 127.81 7.41367C129.154 6.81367 130.69 6.51367 132.418 6.51367C135.01 6.51367 137.11 7.14967 138.718 8.42167C140.35 9.66967 141.25 11.4217 141.418 13.6777H135.874C135.826 12.8137 135.454 12.1057 134.758 11.5537C134.086 10.9777 133.186 10.6897 132.058 10.6897C131.074 10.6897 130.282 10.9417 129.682 11.4457C129.106 11.9497 128.818 12.6817 128.818 13.6417C128.818 14.3137 129.034 14.8777 129.466 15.3337C129.922 15.7657 130.474 16.1257 131.122 16.4137C131.794 16.6777 132.73 16.9897 133.93 17.3497C135.562 17.8297 136.894 18.3097 137.926 18.7897C138.958 19.2697 139.846 19.9897 140.59 20.9497C141.334 21.9097 141.706 23.1697 141.706 24.7297C141.706 26.0737 141.358 27.3217 140.662 28.4737C139.966 29.6257 138.946 30.5497 137.602 31.2457C136.258 31.9177 134.662 32.2537 132.814 32.2537Z" fill="#18063C"/>
<path d="M151.584 16.1977V25.8457C151.584 26.5177 151.74 27.0097 152.052 27.3217C152.388 27.6097 152.94 27.7537 153.708 27.7537H156.048V32.0017H152.88C148.632 32.0017 146.508 29.9377 146.508 25.8097V16.1977H144.132V12.0577H146.508V7.12567H151.584V12.0577H156.048V16.1977H151.584Z" fill="#18063C"/>
<path d="M168.169 32.3257C166.249 32.3257 164.521 31.9057 162.985 31.0657C161.449 30.2017 160.237 28.9897 159.349 27.4297C158.485 25.8697 158.053 24.0697 158.053 22.0297C158.053 19.9897 158.497 18.1897 159.385 16.6297C160.297 15.0697 161.533 13.8697 163.093 13.0297C164.653 12.1657 166.393 11.7337 168.313 11.7337C170.233 11.7337 171.973 12.1657 173.533 13.0297C175.093 13.8697 176.317 15.0697 177.205 16.6297C178.117 18.1897 178.573 19.9897 178.573 22.0297C178.573 24.0697 178.105 25.8697 177.169 27.4297C176.257 28.9897 175.009 30.2017 173.425 31.0657C171.865 31.9057 170.113 32.3257 168.169 32.3257ZM168.169 27.9337C169.081 27.9337 169.933 27.7177 170.725 27.2857C171.541 26.8297 172.189 26.1577 172.669 25.2697C173.149 24.3817 173.389 23.3017 173.389 22.0297C173.389 20.1337 172.885 18.6817 171.877 17.6737C170.893 16.6417 169.681 16.1257 168.241 16.1257C166.801 16.1257 165.589 16.6417 164.605 17.6737C163.645 18.6817 163.165 20.1337 163.165 22.0297C163.165 23.9257 163.633 25.3897 164.569 26.4217C165.529 27.4297 166.729 27.9337 168.169 27.9337Z" fill="#18063C"/>
<path d="M22.3927 37.0092H11.3049C6.66779 37.0092 2.90637 33.2512 2.90637 28.6107V11.3929C2.90637 6.75581 6.66435 2.99438 11.3049 2.99438H24.8164C23.3098 3.14264 21.8514 3.46327 20.4516 3.96663C18.4623 4.68375 16.8453 5.76287 15.6007 7.20056C14.3561 8.63824 13.7321 10.3621 13.7321 12.3755C13.7321 14.5303 14.2596 16.2818 15.3146 17.6195C16.3661 18.9606 17.6383 19.9673 19.1243 20.6362C20.6068 21.3085 22.5237 21.9773 24.8715 22.6496C26.7885 23.2254 28.2848 23.7287 29.3639 24.1597C30.4396 24.5907 31.3394 25.1906 32.06 25.9559C32.7771 26.7213 33.1356 27.7039 33.1356 28.9003C33.1356 30.6724 32.5013 32.0514 31.2325 33.0306C29.9638 34.0132 28.202 34.5028 25.9507 34.5028C23.458 34.5028 21.5549 34.0821 20.2379 33.2443C18.9209 32.4066 18.2623 31.2688 18.2623 29.8311C18.2623 28.7796 18.5382 27.9625 19.0898 27.3867C19.6414 26.811 19.9172 26.5007 19.9172 26.4524C19.9172 26.2145 19.6173 25.8767 19.0174 25.4457C18.4175 25.0147 17.7348 24.7975 16.9695 24.7975C15.6283 24.7975 14.5388 25.2285 13.7011 26.0904C12.8633 26.9523 12.4427 28.0797 12.4427 29.4691C12.4427 31.9135 13.639 33.8063 16.0351 35.144C17.7728 36.1266 19.8965 36.7403 22.3927 37.0092Z" fill="#FA865F"/>
<path d="M28.8399 0.00170898H11.1567C5.00603 0.00170898 0 5.00774 0 11.1584V28.8416C0 34.9957 5.00603 39.9983 11.1567 39.9983H28.8399C34.994 39.9983 40 34.9922 40 28.8416V11.1584C40 5.00774 34.994 0.00170898 28.8399 0.00170898ZM39.045 28.8416C39.045 34.4751 34.4768 39.0433 28.8433 39.0433H11.1567C5.52319 39.0433 0.955008 34.4751 0.955008 28.8416V11.1584C0.955008 5.5249 5.52319 0.956717 11.1567 0.956717H28.8399C31.2429 0.956717 33.4494 1.7945 35.1939 3.19081C37.1798 5.10773 38.4899 8.32096 37.0074 11.5377C36.8109 12.0789 36.5178 12.5754 36.1283 13.0236C35.3387 13.9338 34.2941 14.3889 33.0012 14.3889C32.2324 14.3889 31.5532 14.1717 30.9533 13.7407C30.3534 13.3098 30.0534 12.9753 30.0534 12.734C30.0534 12.6857 30.2465 12.4961 30.6292 12.1582C31.0119 11.8238 31.3601 11.4273 31.6739 10.9722C31.9841 10.5171 32.1427 9.9793 32.1427 9.35527C32.0462 8.06239 31.398 7.05567 30.2017 6.33855C29.0019 5.62143 27.5884 5.25942 25.961 5.25942C24.1407 5.25942 22.5478 5.68004 21.1826 6.51783C19.8173 7.35561 19.1346 8.51748 19.1346 10.0034C19.1346 11.3446 19.4208 12.4099 19.9966 13.1994C20.5723 13.989 21.4342 14.6268 22.5823 15.1026C23.7304 15.5818 25.5508 16.2299 28.0434 17.0436C30.5809 17.8573 32.5702 18.6123 34.0079 19.3087C35.2284 19.8983 36.2179 20.6706 37.0074 21.6049C37.0178 21.6187 37.0281 21.629 37.0384 21.6428C38.3761 23.2529 39.045 25.3111 39.045 27.4039V28.8416Z" fill="#FA865F"/>
</svg>
