<svg width="176" height="35" viewBox="0 0 176 35" fill="none" xmlns="http://www.w3.org/2000/svg">
<path d="M0.727801 19.3056C2.18934 15.4548 7.67011 12.4865 10.2278 11.4837C21.9201 6.67039 40.7374 4.26347 48.5932 5.46693C56.449 6.67039 47.8624 9.07692 40.372 11.4836C32.8816 13.8904 38.3624 15.0937 45.122 13.8904C51.8817 12.687 65.949 11.4836 78.0067 10.882C90.0644 10.2803 77.824 9.07692 65.949 9.07692C54.074 9.07692 54.2567 6.67029 58.4586 5.46693C62.6605 4.26357 72.1605 -0.549874 83.3047 0.0518062C94.449 0.653487 120.757 1.85685 132.084 6.06861C143.411 10.2804 166.795 21.7123 172.459 25.3224C178.122 28.9325 177.391 39.161 167.343 33.1442C157.295 27.1274 136.468 16.2972 90.7951 14.4921C45.122 12.6871 10.4105 22.9157 6.75662 27.1274C3.10278 31.3392 0.545082 31.3392 2.00662 27.7291C3.46816 24.119 3.83357 23.5174 2.37203 24.7207C0.910493 25.9241 -1.09912 24.119 0.727801 19.3056Z" fill="#FF733B"/>
</svg>
