<svg width="135" height="156" viewBox="0 0 135 156" fill="none" xmlns="http://www.w3.org/2000/svg">
<path opacity="0.2" d="M9.08212 1.24612C9.34785 0.761964 9.95575 0.584891 10.4399 0.850617C10.9241 1.11634 11.1011 1.72424 10.8354 2.2084L9.08212 1.24612ZM48.5676 83.8871L48.7873 82.9115L48.5676 83.8871ZM133.821 146.561C134.244 146.916 134.3 147.546 133.946 147.97L128.169 154.871C127.814 155.295 127.184 155.351 126.76 154.996C126.337 154.642 126.281 154.011 126.635 153.588L131.77 147.453L125.636 142.318C125.212 141.964 125.156 141.333 125.511 140.909C125.865 140.486 126.496 140.43 126.919 140.784L133.821 146.561ZM10.8354 2.2084C4.9223 12.9822 -0.220553 29.9107 3.40321 45.7254C5.20969 53.6091 9.19596 61.2302 16.3802 67.7113C23.5716 74.1989 34.0132 79.5852 48.7873 82.9115L48.348 84.8627C33.3236 81.4799 22.5446 75.9661 15.0405 69.1963C7.52925 62.4201 3.34516 54.4265 1.45373 46.1721C-2.31832 29.7103 3.03283 12.268 9.08212 1.24612L10.8354 2.2084ZM48.7873 82.9115C67.2397 87.0661 80.4261 84.7055 89.1085 79.3341C97.7855 73.9661 102.09 65.5177 102.671 57.2051C103.254 48.8703 100.094 40.745 93.925 35.9865C87.799 31.2609 78.5085 29.7094 66.4981 34.8983L65.7049 33.0624C78.2253 27.6531 88.3206 29.1374 95.1465 34.4029C101.93 39.6356 105.288 48.4566 104.666 57.3446C104.043 66.255 99.4213 75.3059 90.1607 81.0349C80.9057 86.7605 67.1437 89.0946 48.348 84.8627L48.7873 82.9115ZM66.4981 34.8983C54.574 40.05 47.7138 49.9385 45.3721 61.8456C43.0249 73.7811 45.2258 87.7478 51.4953 100.891C64.0264 127.16 92.6963 149.915 133.09 146.332L133.267 148.324C91.9297 151.991 62.5302 128.669 49.6901 101.752C43.274 88.3013 40.9639 73.8966 43.4097 61.4596C45.8612 48.9941 53.0982 38.5089 65.7049 33.0624L66.4981 34.8983Z" fill="#FF553E"/>
</svg>
